<svg id="Layer_1" data-name="Layer 1" xmlns="http://www.w3.org/2000/svg" viewBox="0 0 31.9 30.24"><defs><style>.cls-1{fill:#2f2c68;}</style></defs><title>covid19</title><path class="cls-1" d="M9.74,5.2a1.21,1.21,0,0,1-1.22-.55,1.14,1.14,0,0,1,0-1.4A1.21,1.21,0,0,1,10.18,3a1.2,1.2,0,0,1,.47,1.55.51.51,0,0,0,0,.58L12.61,8.7c.08.17.15.2.32.1a8.53,8.53,0,0,1,2.92-.93c.13,0,.19,0,.18-.17C16,6.45,15.88,5.2,15.82,4a.38.38,0,0,0-.24-.35,1.21,1.21,0,0,1-.51-1.72,1.18,1.18,0,0,1,1.41-.53,1.21,1.21,0,0,1,.36,2.16.31.31,0,0,0-.14.32c.07,1.23.14,2.46.2,3.7,0,.08,0,.17,0,.22.55.07,1.09.12,1.63.2a6.82,6.82,0,0,1,2.16.69c.51.26,1,.59,1.48.89.11.07.17.06.24,0l.91-1.11.54-.67,1.24-1.47c.22-.27.45-.54.66-.82a.29.29,0,0,0,0-.24,2.24,2.24,0,0,1,.47-2.74A2.2,2.2,0,0,1,28.7,2.1a2.22,2.22,0,0,1,1.38,2.27,2.18,2.18,0,0,1-2.5,2c-.42-.07-.58.16-.78.4-.34.42-.69.82-1,1.23s-.71.87-1.07,1.31-.67.79-1,1.19a2.43,2.43,0,0,0-.14.2c.27.39.56.75.82,1.14a8.17,8.17,0,0,1,1,2.09c0,.15.09.2.26.19q.86-.1,1.71-.15a.26.26,0,0,0,.25-.18.83.83,0,0,1,.61-.49,1,1,0,0,1,1,.39.9.9,0,0,1-.05,1A.92.92,0,0,1,28,15a.58.58,0,0,1-.28-.23c-.09-.15-.19-.15-.33-.14l-1.82.16c0,.24.07.47.09.69,0,.39.07.77.07,1.16,0,.21.11.28.27.34l2.4.75,1.11.33a.26.26,0,0,0,.31-.08A1.16,1.16,0,0,1,31,17.63,1.22,1.22,0,1,1,30,19.81a1.16,1.16,0,0,1-.47-.7.27.27,0,0,0-.21-.23l-2.4-.76-1.23-.35c-.06.27-.11.53-.17.79a8.36,8.36,0,0,1-1,2.41c-.11.17-.06.26.08.36l2.64,1.91c.21.15.43.31.65.45a.26.26,0,0,0,.23,0,1.28,1.28,0,0,1,1.54.41,1.22,1.22,0,0,1-1.58,1.78,1.26,1.26,0,0,1-.64-1.3.29.29,0,0,0-.09-.22c-.56-.42-1.12-.82-1.68-1.22L24.21,22.1,24,22c-.1-.08-.17-.06-.25,0a9,9,0,0,1-1.89,1.69.23.23,0,0,0-.08.17c.21.73.43,1.47.65,2.2a.23.23,0,0,0,.15.12,1.26,1.26,0,0,1,1,.8,1.15,1.15,0,0,1-.22,1.2,1.13,1.13,0,0,1-1.24.4,1.18,1.18,0,0,1-.92-1,1.11,1.11,0,0,1,.3-1,.28.28,0,0,0,.07-.34L21,24.4c-.05-.16-.11-.18-.26-.11a8.79,8.79,0,0,1-4.05.79l-.33,0L16,25c-.08.53-.17,1.06-.25,1.58s-.16,1.15-.25,1.73a.28.28,0,0,0,.12.3,1.21,1.21,0,0,1-.59,2.2,1.25,1.25,0,0,1-1.25-.75,1.17,1.17,0,0,1,.52-1.52.59.59,0,0,0,.37-.55c.15-1,.29-2,.45-3,0-.15,0-.2-.16-.24l-1.26-.42-.12,0c-.35-.16-.35-.16-.55.18-.77,1.32-1.53,2.63-2.31,3.95a.29.29,0,0,0,0,.37,1.7,1.7,0,0,1-2,2.58,1.71,1.71,0,0,1,.62-3.32A.27.27,0,0,0,9.64,28q1.26-2.16,2.5-4.33a.93.93,0,0,0,0-.1c-.28-.22-.57-.43-.83-.66a8.52,8.52,0,0,1-1.45-1.61c-.16-.25-.17-.25-.44-.14l-3,1.16-1,.41a1.1,1.1,0,0,1-.3.88,1.22,1.22,0,0,1-.84.4,1.17,1.17,0,0,1-1-.41,1.15,1.15,0,0,1-.23-1.24,1.17,1.17,0,0,1,1.32-.77,1.28,1.28,0,0,1,.52.22.32.32,0,0,0,.37,0l2-.81,1.77-.7a.91.91,0,0,1,.14-.07c-.12-.28-.23-.55-.34-.83a8,8,0,0,1-.55-2.86c0-.16-.07-.22-.24-.23l-3.94-.11-.61,0a.27.27,0,0,0-.26.16,1.71,1.71,0,0,1-2.76.46,1.66,1.66,0,0,1-.32-2,1.68,1.68,0,0,1,1.81-.87,1.74,1.74,0,0,1,1.25.93.32.32,0,0,0,.22.13l3.72.11,1,0c.13,0,.19,0,.21-.17a8.3,8.3,0,0,1,1-2.86c.06-.12.07-.18-.06-.28l-2-1.62-.14-.14A.2.2,0,0,0,7,10a.94.94,0,0,1-1-.26.93.93,0,0,1-.11-1,.85.85,0,0,1,.87-.47.87.87,0,0,1,.82,1,.29.29,0,0,0,.09.21l2,1.63c.1.07.2.21.3.2s.14-.17.22-.26a8.92,8.92,0,0,1,1.6-1.53c.13-.09.2-.17.09-.36-.49-.88-.94-1.78-1.41-2.66Zm6.07,7.32a1.39,1.39,0,0,0,1.45-2.36,1.4,1.4,0,0,0-2,.49A1.39,1.39,0,0,0,15.81,12.52Zm-.44,6a1.29,1.29,0,1,0-1.78.44A1.3,1.3,0,0,0,15.37,18.56Zm2.82-1.15a.93.93,0,1,0,.93-1.62,1,1,0,0,0-1.28.36A.93.93,0,0,0,18.19,17.41Z" transform="translate(-0.05 -1.3)"/></svg>